PathFileType  4	(X/Y/Z) C:\Users\antoi\Documents\MyRepositories\mobilecap\ResultsAnalysis
DataRate	CameraRate	NumFrames	NumMarkers	Units	OrigDataRate	OrigDataStartFrame	OrigNumFrames
100.0	100.0	4	51	mm	100.0	406	1623
Frame#	Time	r_knee			r_shank_antsup			r_ankle			r_calc			r_5meta			r_toe			L_knee			L_shank_antsup			L_ankle			L_calc			L_5meta			L_toe			r_sh2			r_sh3			r_sh4			L_sh2			L_sh3			r_thigh1			r_thigh2			r_thigh3			r_thigh4			r_thigh5			L_thigh1			L_thigh2			L_thigh3			L_thigh4			r.ASIS			r.PSIS			L.ASIS			L.PSIS			C7			R_Shoulder			L_Shoulder			R_Sternum			L_Sternum			R_humerus			R_elbow_med			R_elbow_lat			R_forearm			R_wrist_radius			R_wrist_ulna			L_humerus			L_elbow_med			L_elbow_lat			L_forearm			L_wrist_radius			L_wrist_ulna			R_HJC			L_HJC			R_HJC_reg			L_HJC_reg			
		X1	Y1	Z1	X2	Y2	Z2	X3	Y3	Z3	X4	Y4	Z4	X5	Y5	Z5	X6	Y6	Z6	X7	Y7	Z7	X8	Y8	Z8	X9	Y9	Z9	X10	Y10	Z10	X11	Y11	Z11	X12	Y12	Z12	X13	Y13	Z13	X14	Y14	Z14	X15	Y15	Z15	X16	Y16	Z16	X17	Y17	Z17	X18	Y18	Z18	X19	Y19	Z19	X20	Y20	Z20	X21	Y21	Z21	X22	Y22	Z22	X23	Y23	Z23	X24	Y24	Z24	X25	Y25	Z25	X26	Y26	Z26	X27	Y27	Z27	X28	Y28	Z28	X29	Y29	Z29	X30	Y30	Z30	X31	Y31	Z31	X32	Y32	Z32	X33	Y33	Z33	X34	Y34	Z34	X35	Y35	Z35	X36	Y36	Z36	X37	Y37	Z37	X38	Y38	Z38	X39	Y39	Z39	X40	Y40	Z40	X41	Y41	Z41	X42	Y42	Z42	X43	Y43	Z43	X44	Y44	Z44	X45	Y45	Z45	X46	Y46	Z46	X47	Y47	Z47	X48	Y48	Z48	X49	Y49	Z49	X50	Y50	Z50	X51	Y51	Z51	

406	4.05000000	-92.85650	466.22245	-382.51928	-81.23140	393.58382	-354.53956	-288.74382	105.08365	-385.49598	-348.33244	53.79244	-432.15809	-163.18396	40.84622	-316.63150	-120.27211	65.44945	-370.36361	-94.87802	475.58281	-916.55778	-92.79419	371.27864	-932.08397	-273.56032	100.81472	-891.73791	-342.76072	54.39706	-854.14606	-128.42012	33.55318	-941.31531	-100.19733	61.49164	-879.51826	-137.64553	294.77122	-354.22588	-146.28531	431.10758	-358.91550	-210.31225	333.04871	-359.77784	-169.12218	418.96910	-925.48957	-222.01734	309.56068	-921.82610	-340.47567	637.15110	-416.97770	-237.78514	611.00823	-406.09750	-231.10305	549.51958	-374.00124	-369.14791	526.63406	-415.42997	-255.67805	502.93927	-393.29253	-346.73744	643.75268	-847.85041	-214.63353	605.68440	-875.03143	-383.25969	530.17737	-853.98046	-253.16242	504.61784	-895.68568	-354.15349	640.84257	-499.57676	-504.51507	747.44253	-586.63530	-340.68274	655.02673	-760.40126	-506.80939	741.99785	-686.44794	-204.80841	1143.46267	-649.86816	-154.37134	1082.74671	-472.80552	-126.44729	1083.89806	-806.17697	-86.56426	1025.26585	-607.92655	-84.43000	1022.54444	-661.99695	-287.18999	896.08946	-323.48936	-372.79045	808.12392	-361.25695	-341.18048	835.11796	-279.34767	-228.34665	716.65451	-285.12939	-152.40322	645.63588	-307.76757	-181.40756	622.36943	-282.94666	-233.94133	877.48534	-937.63275	-323.04353	792.99409	-898.49038	-289.79790	811.96659	-969.91151	-177.84243	675.69991	-982.55622	-103.36552	615.86908	-968.05493	-130.49465	588.37013	-980.03848	-454.56624	595.20990	-515.44549	-440.72737	602.93841	-745.26757	-442.39502	614.31809	-532.19462	-446.35614	604.91785	-704.52045	
407	4.06000000	-93.51168	465.99178	-383.17425	-81.44144	393.70541	-354.72603	-288.83838	105.07618	-385.57050	-348.34092	53.76715	-432.17148	-163.19593	40.91447	-316.65716	-120.30136	65.56401	-370.33840	-95.70811	475.79933	-917.13824	-93.25944	371.50380	-932.28891	-273.66568	100.86430	-891.79674	-342.81651	54.33934	-854.11198	-128.50529	33.61053	-941.37352	-100.22627	61.66376	-879.54201	-137.80137	295.07106	-354.23076	-146.63564	431.19013	-358.96134	-210.45999	333.22388	-359.76890	-169.65997	419.05083	-925.66981	-222.42241	309.57114	-922.02714	-341.04603	637.10660	-416.77352	-238.11972	610.99230	-406.07207	-231.42739	549.46158	-374.02529	-369.63946	526.63251	-415.26475	-255.98430	502.89142	-393.33124	-347.55607	643.75793	-847.86088	-215.44056	605.73016	-875.00692	-383.91839	530.16131	-854.01100	-253.85815	504.73697	-895.91318	-354.91699	640.55567	-499.41694	-505.22294	747.21696	-586.46771	-341.61547	654.84365	-760.09548	-507.62019	741.66703	-686.23754	-205.08304	1143.03901	-649.71119	-154.49141	1082.35635	-472.56641	-126.65836	1083.52650	-805.80480	-86.93165	1024.83236	-607.74455	-84.79722	1022.12410	-662.00311	-287.31880	895.59406	-323.37706	-372.97098	807.31730	-361.64468	-341.27917	834.42227	-279.41675	-228.49914	716.04069	-285.27568	-152.50671	645.07169	-307.79337	-181.65520	621.61195	-283.18532	-234.00767	877.22930	-937.65429	-323.09105	792.74158	-898.60118	-289.78100	811.65343	-969.87134	-177.97124	675.34631	-982.42301	-103.57961	615.41399	-967.91358	-130.68056	587.96957	-980.00314	-455.33923	594.95505	-515.22583	-441.56568	602.68138	-745.05185	-443.14196	614.31854	-531.88327	-447.27978	604.73870	-704.09699	
408	4.07000000	-93.53194	466.56379	-383.08553	-81.73667	393.79074	-355.07706	-288.90989	105.10130	-385.61174	-348.36551	53.71986	-432.18563	-163.20952	40.99766	-316.69903	-120.33304	65.68377	-370.31808	-96.51807	475.83053	-917.23401	-93.77720	371.68680	-932.42812	-273.77612	100.90782	-891.87826	-342.90348	54.32008	-854.15779	-128.58383	33.64804	-941.40960	-100.29752	61.83656	-879.60958	-137.91985	295.33101	-354.30648	-146.96231	431.39852	-358.90781	-210.68416	333.46904	-359.68014	-170.23441	419.17058	-925.92102	-222.90141	309.62639	-922.14039	-341.58515	637.17985	-416.58342	-238.51536	611.04854	-406.05282	-231.81727	549.47346	-374.18929	-370.22349	526.73541	-414.95198	-256.38305	502.85597	-393.48249	-348.41509	643.70866	-847.71148	-216.28194	605.82242	-874.97290	-384.62484	530.21277	-854.15501	-254.64874	504.65472	-895.65399	-355.64296	640.26483	-499.47348	-505.93820	747.02951	-586.38734	-342.50025	654.65211	-759.79479	-508.44506	741.48449	-686.00311	-205.39821	1142.64254	-649.65331	-154.52655	1082.00213	-472.29188	-126.78627	1083.16141	-805.50037	-87.31023	1024.40003	-607.75985	-85.23065	1021.74949	-661.97554	-287.61282	894.97654	-323.49393	-373.13401	806.75643	-361.74533	-341.43300	833.79476	-279.36067	-228.70232	715.50510	-285.44383	-152.76199	644.38907	-308.01597	-182.01161	620.93723	-283.36933	-234.12403	876.97178	-937.52789	-323.17196	792.52480	-898.60269	-289.84831	811.34976	-969.83016	-178.23452	674.86954	-982.19403	-103.92544	614.95990	-967.77794	-131.07000	587.49337	-979.93090	-456.11489	594.72014	-515.10190	-442.42928	602.50289	-744.93132	-443.80559	614.23956	-531.78031	-448.13341	604.66685	-703.75241	
409	4.08000000	-92.89409	467.94773	-381.97587	-82.11480	393.89976	-355.44110	-288.92183	105.15861	-385.57986	-348.39812	53.67444	-432.20224	-163.23692	41.13180	-316.72224	-120.38386	65.79447	-370.34760	-96.61511	475.78596	-915.72209	-94.33851	371.80303	-932.33592	-273.87181	100.90162	-891.91834	-342.94738	54.29358	-854.18100	-128.66258	33.67421	-941.39261	-100.41357	62.03769	-879.73074	-138.04091	295.43783	-354.46451	-147.20404	431.58818	-358.91522	-210.92304	333.69968	-359.52566	-170.83462	419.32520	-926.24022	-223.38730	309.81289	-922.25400	-342.05708	637.20657	-416.57780	-239.08673	611.17812	-406.12313	-232.28921	549.64642	-374.28167	-370.74654	526.76812	-414.66901	-256.83555	502.86494	-393.62187	-349.29007	643.66573	-847.51569	-217.11893	605.96561	-875.00139	-385.36052	530.24918	-854.20990	-255.46633	504.50069	-895.17800	-356.35629	640.09293	-499.54599	-506.66200	746.95043	-586.29926	-343.27665	654.63220	-759.72585	-509.25686	741.45818	-685.80251	-205.76480	1142.34416	-649.66361	-154.47902	1081.69132	-472.10152	-126.79061	1082.86358	-805.42469	-87.67564	1024.05157	-607.89318	-85.66850	1021.43560	-661.84553	-287.98356	894.36876	-323.73989	-373.23134	806.45282	-361.43162	-341.53904	833.28431	-279.29230	-228.93034	714.91485	-285.65584	-153.10125	643.59352	-308.40196	-182.35378	620.30212	-283.66935	-234.23168	876.71858	-937.40588	-323.29166	792.31318	-898.45161	-289.98687	811.11360	-969.79668	-178.62082	674.27373	-981.92425	-104.33291	614.40022	-967.62581	-131.65260	586.89478	-979.83395	-456.83781	594.57154	-515.08652	-443.24136	602.50441	-744.91611	-444.46246	614.17760	-531.76053	-448.94497	604.69014	-703.64360	
